HIERARCHY
ROOT hip
{
	OFFSET 0.000000 0.000000 0.000000 
	CHANNELS 6 Xposition Yposition Zposition Xrotation Zrotation Yrotation
	JOINT abdomen
	{
		OFFSET 0.000000 3.402643 0.000000 
		CHANNELS 3 Xrotation Zrotation Yrotation
		JOINT chest
		{
			OFFSET 0.000000 8.438565 -0.680529 
			CHANNELS 3 Xrotation Zrotation Yrotation
			JOINT neck
			{
				OFFSET 0.000000 10.207942 -0.272212 
				CHANNELS 3 Xrotation Zrotation Yrotation
				JOINT head
				{
					OFFSET 0.000000 3.130431 0.000000 
					CHANNELS 3 Xrotation Zrotation Yrotation
					End Site
					{
						OFFSET 0.000000 3.130435 0.000000 
					}
				}
			}
			JOINT lCollar
			{
				OFFSET 3.470700 6.669187 -0.816635 
				CHANNELS 3 Yrotation Zrotation Xrotation
				JOINT lShldr
				{
					OFFSET 3.198488 0.000000 0.000000 
					CHANNELS 3 Zrotation Yrotation Xrotation
					JOINT lForeArm
					{
						OFFSET 10.139888 0.000000 0.000000 
						CHANNELS 3 Yrotation Zrotation Xrotation
						JOINT lHand
						{
							OFFSET 8.370511 0.000000 0.000000 
							CHANNELS 3 Zrotation Yrotation Xrotation
							End Site
							{
								OFFSET 4.083176 0.000000 0.000000 
							}
						}
					}
				}
			}
			JOINT rCollar
			{
				OFFSET -3.470700 6.669187 -0.816635 
				CHANNELS 3 Yrotation Zrotation Xrotation
				JOINT rShldr
				{
					OFFSET -3.198488 0.000000 0.000000 
					CHANNELS 3 Zrotation Yrotation Xrotation
					JOINT rForeArm
					{
						OFFSET -10.139888 0.000000 0.000000 
						CHANNELS 3 Yrotation Zrotation Xrotation
						JOINT rHand
						{
							OFFSET -8.370511 0.000000 0.000000 
							CHANNELS 3 Zrotation Yrotation Xrotation
							End Site
							{
								OFFSET -4.083176 0.000000 0.000000 
							}
						}
					}
				}
			}
		}
	}
	JOINT lThigh
	{
		OFFSET 5.308129 -1.633274 1.361059 
		CHANNELS 3 Xrotation Zrotation Yrotation
		JOINT lShin
		{
			OFFSET -2.041588 -20.007561 0.000000 
			CHANNELS 3 Xrotation Zrotation Yrotation
			JOINT lFoot
			{
				OFFSET 0.000000 -19.190928 -1.224953 
				CHANNELS 3 Xrotation Yrotation Zrotation
				End Site
				{
					OFFSET 0.000000 -2.449906 4.627600 
				}
			}
		}
	}
	JOINT rThigh
	{
		OFFSET -5.308129 -1.633274 1.361059 
		CHANNELS 3 Xrotation Zrotation Yrotation
		JOINT rShin
		{
			OFFSET 2.041588 -20.007561 0.000000 
			CHANNELS 3 Xrotation Zrotation Yrotation
			JOINT rFoot
			{
				OFFSET 0.000000 -19.190928 -1.224953 
				CHANNELS 3 Xrotation Yrotation Zrotation
				End Site
				{
					OFFSET 0.000000 -2.449906 4.627600 
				}
			}
		}
	}
}
MOTION
Frames: 6
Frame Time: 0.011111
29.952862 48.957542 -42.757622 6.869658 -4.811382 80.982880 20.478611 15.779007 6.803506 -2.356128 -3.151394 1.121471 -1.603610 -14.429365 -8.578750 44.233017 -3.202814 -15.845547 1.452834 -1.250150 0.768655 -34.633068 -13.383272 -13.140818 -67.334297 10.204713 14.668301 6.992188 16.005859 -23.884022 -6.408587 0.914528 1.823621 15.895216 27.402641 35.250057 73.162621 -9.808119 17.412350 -7.001954 -15.996095 74.277344 -22.555668 10.779497 4.928368 38.604939 -5.105315 -2.920565 -16.357702 -5.640945 -2.042046 -17.722399 -28.190271 2.898591 26.568714 5.268306 1.919929 -31.945332 -19.752193 -10.462393 
29.950449 49.047226 -42.505169 7.101456 -5.196000 80.231552 20.763903 15.881339 7.219374 -2.102895 -2.593024 1.230160 -1.584301 -14.544902 -8.629292 43.857380 -4.128523 -16.247875 1.452834 -1.250150 0.768655 -36.826176 -13.304143 -15.058165 -68.051949 10.190072 14.990776 6.992188 16.005859 -23.317619 -6.408587 0.914528 1.823621 15.109443 27.659067 35.638111 73.194992 -9.805043 17.436317 -7.001954 -15.996095 74.951172 -22.768303 10.827085 4.489878 38.228565 -5.115340 -2.869115 -16.707249 -4.133323 -1.577173 -19.041910 -28.299351 1.793018 27.298288 5.257987 1.976583 -28.353157 -20.267811 -8.905965 
29.968569 49.111855 -42.189301 8.944828 -5.483048 79.046074 20.579659 13.683877 6.817136 -1.713827 -1.352393 1.264470 -1.950791 -14.234478 -8.452656 43.911480 -5.848166 -16.660263 1.452834 -1.250150 0.768655 -39.273418 -12.940594 -17.228941 -68.844421 10.163946 15.361603 6.992188 16.005859 -22.731680 -6.408587 0.914528 1.823621 14.119029 28.529943 36.517246 73.121597 -9.815939 17.398151 -7.001954 -15.996095 75.986328 -22.489285 9.384249 4.963433 37.635448 -5.124390 -2.847359 -16.996408 -2.994954 -1.227598 -21.588484 -30.181089 0.864158 28.384396 5.253234 2.068034 -24.202923 -19.859266 -6.955202 
29.988197 49.146580 -41.841122 11.266792 -5.691206 77.674782 20.300140 10.654114 6.610865 -1.451114 -0.395855 1.392964 -2.069999 -13.051340 -8.426756 43.711357 -7.623282 -17.334549 1.452834 -1.250150 0.768655 -41.162144 -12.488869 -18.690748 -69.851105 10.116296 15.833560 6.992188 16.005859 -21.911367 -6.408587 0.914528 1.823621 13.391820 29.028238 37.799255 73.152374 -9.810079 17.411242 -7.001954 -15.996095 77.675781 -22.018585 7.518198 5.695757 36.922848 -5.137799 -2.793132 -17.490889 -2.292619 -0.995160 -24.861284 -32.448608 0.716099 29.897022 5.243373 2.185689 -22.294390 -17.929962 -5.695369 
29.957695 49.156548 -41.452477 13.882685 -5.658545 76.375595 20.338192 7.015814 6.367940 -1.500289 0.606459 1.538449 -2.121791 -12.102129 -8.409022 43.475002 -8.293655 -17.588789 1.452834 -1.250150 0.768655 -42.962051 -11.841307 -19.706493 -71.036560 10.032676 16.396149 6.992188 16.005859 -20.866446 -6.408587 0.914528 1.823621 12.786733 29.203573 39.238106 73.426598 -9.771979 17.548157 -7.001954 -15.996095 80.000000 -21.481382 5.321145 6.407082 36.210350 -5.147540 -2.737677 -17.921774 -1.709507 -0.795447 -28.071568 -34.662815 2.098970 31.141687 5.219292 2.297951 -22.974831 -15.944484 -5.464309 
29.889448 49.162891 -41.003441 16.947334 -5.799992 75.351448 19.938402 2.923129 5.142022 -1.567795 1.999414 1.441794 -2.123888 -12.170287 -8.132944 42.963490 -8.141076 -16.992668 1.452834 -1.250150 0.768655 -44.721508 -10.831887 -20.908197 -71.758194 9.961858 16.736485 6.992188 16.005859 -19.909414 -6.408587 0.914528 1.823621 12.292449 29.964481 40.803612 73.711708 -9.731807 17.677805 -7.001954 -15.996095 81.689453 -21.570330 2.743642 7.351501 35.742416 -5.172868 -2.678479 -18.072355 -1.324912 -0.670436 -31.722548 -36.937611 4.607969 32.126385 5.199479 2.391298 -23.380627 -15.449181 -5.475241 
